<mxfile host="65bd71144e">
    <diagram id="62jWOI6XPbYljoik_4kJ" name="Page-1">
        <mxGraphModel dx="714" dy="572" grid="1" gridSize="10" guides="1" tooltips="1" connect="1" arrows="1" fold="1" page="1" pageScale="1" pageWidth="850" pageHeight="1100" math="0" shadow="0">
            <root>
                <mxCell id="0"/>
                <mxCell id="1" parent="0"/>
                <mxCell id="4" value="Playlist" style="rounded=0;whiteSpace=wrap;html=1;fillColor=#f5f5f5;fontColor=#333333;strokeColor=#666666;" parent="1" vertex="1">
                    <mxGeometry x="420" y="650" width="120" height="60" as="geometry"/>
                </mxCell>
                <mxCell id="5" value="Episodes" style="rounded=0;whiteSpace=wrap;html=1;fillColor=#f5f5f5;fontColor=#333333;strokeColor=#666666;" parent="1" vertex="1">
                    <mxGeometry x="120" y="930" width="120" height="60" as="geometry"/>
                </mxCell>
                <mxCell id="6" value="Album" style="rounded=0;whiteSpace=wrap;html=1;fillColor=#f5f5f5;fontColor=#333333;strokeColor=#666666;" parent="1" vertex="1">
                    <mxGeometry x="135" y="480" width="120" height="60" as="geometry"/>
                </mxCell>
                <mxCell id="7" value="User" style="rounded=0;whiteSpace=wrap;html=1;fillColor=#f5f5f5;fontColor=#333333;strokeColor=#666666;" parent="1" vertex="1">
                    <mxGeometry x="630" y="560" width="120" height="60" as="geometry"/>
                </mxCell>
                <mxCell id="8" value="Artist" style="rounded=0;whiteSpace=wrap;html=1;fillColor=#f5f5f5;fontColor=#333333;strokeColor=#666666;" parent="1" vertex="1">
                    <mxGeometry x="570" y="140" width="120" height="60" as="geometry"/>
                </mxCell>
                <mxCell id="9" value="Podcasts" style="rounded=0;whiteSpace=wrap;html=1;fillColor=#f5f5f5;fontColor=#333333;strokeColor=#666666;" parent="1" vertex="1">
                    <mxGeometry x="600" y="940" width="120" height="60" as="geometry"/>
                </mxCell>
                <mxCell id="10" value="Title" style="ellipse;whiteSpace=wrap;html=1;fillColor=#f5f5f5;fontColor=#333333;strokeColor=#666666;rounded=0;" parent="1" vertex="1">
                    <mxGeometry x="70" y="40" width="90" height="60" as="geometry"/>
                </mxCell>
                <mxCell id="11" value="Length" style="ellipse;whiteSpace=wrap;html=1;fillColor=#f5f5f5;fontColor=#333333;strokeColor=#666666;rounded=0;" parent="1" vertex="1">
                    <mxGeometry x="25" y="170" width="100" height="60" as="geometry"/>
                </mxCell>
                <mxCell id="12" value="Release Date" style="ellipse;whiteSpace=wrap;html=1;fillColor=#f5f5f5;fontColor=#333333;strokeColor=#666666;rounded=0;" parent="1" vertex="1">
                    <mxGeometry x="270" y="355" width="100" height="70" as="geometry"/>
                </mxCell>
                <mxCell id="13" value="Title" style="ellipse;whiteSpace=wrap;html=1;fillColor=#f5f5f5;fontColor=#333333;strokeColor=#666666;rounded=0;" parent="1" vertex="1">
                    <mxGeometry x="20" y="475" width="100" height="70" as="geometry"/>
                </mxCell>
                <mxCell id="14" value="Bio" style="ellipse;whiteSpace=wrap;html=1;fillColor=#f5f5f5;fontColor=#333333;strokeColor=#666666;rounded=0;" parent="1" vertex="1">
                    <mxGeometry x="710" y="130" width="120" height="80" as="geometry"/>
                </mxCell>
                <mxCell id="15" value="Name" style="ellipse;whiteSpace=wrap;html=1;fillColor=#f5f5f5;fontColor=#333333;strokeColor=#666666;rounded=0;" parent="1" vertex="1">
                    <mxGeometry x="570" width="120" height="80" as="geometry"/>
                </mxCell>
                <mxCell id="17" value="Album Lenght" style="ellipse;whiteSpace=wrap;html=1;fillColor=#f5f5f5;fontColor=#333333;strokeColor=#666666;rounded=0;" parent="1" vertex="1">
                    <mxGeometry x="15" y="360" width="110" height="60" as="geometry"/>
                </mxCell>
                <mxCell id="18" value="Song Count" style="ellipse;whiteSpace=wrap;html=1;fillColor=#f5f5f5;fontColor=#333333;strokeColor=#666666;rounded=0;" parent="1" vertex="1">
                    <mxGeometry x="20" y="600" width="100" height="60" as="geometry"/>
                </mxCell>
                <mxCell id="19" value="Artwork URL" style="ellipse;whiteSpace=wrap;html=1;fillColor=#f5f5f5;fontColor=#333333;strokeColor=#666666;rounded=0;" parent="1" vertex="1">
                    <mxGeometry x="280" y="480" width="110" height="60" as="geometry"/>
                </mxCell>
                <mxCell id="20" value="Length" style="ellipse;whiteSpace=wrap;html=1;fillColor=#f5f5f5;fontColor=#333333;strokeColor=#666666;rounded=0;" parent="1" vertex="1">
                    <mxGeometry x="270" y="590" width="110" height="60" as="geometry"/>
                </mxCell>
                <mxCell id="21" value="Name" style="ellipse;whiteSpace=wrap;html=1;fillColor=#f5f5f5;fontColor=#333333;strokeColor=#666666;rounded=0;" parent="1" vertex="1">
                    <mxGeometry x="390" y="740" width="110" height="60" as="geometry"/>
                </mxCell>
                <mxCell id="22" value="Username&lt;span style=&quot;color: rgba(0, 0, 0, 0); font-family: monospace; font-size: 0px; text-align: start;&quot;&gt;%3CmxGraphModel%3E%3Croot%3E%3CmxCell%20id%3D%220%22%2F%3E%3CmxCell%20id%3D%221%22%20parent%3D%220%22%2F%3E%3CmxCell%20id%3D%222%22%20value%3D%22Length%22%20style%3D%22ellipse%3BwhiteSpace%3Dwrap%3Bhtml%3D1%3BfillColor%3D%23f5f5f5%3BfontColor%3D%23333333%3BstrokeColor%3D%23666666%3Brounded%3D0%3B%22%20vertex%3D%221%22%20parent%3D%221%22%3E%3CmxGeometry%20x%3D%22355%22%20y%3D%22480%22%20width%3D%22110%22%20height%3D%2260%22%20as%3D%22geometry%22%2F%3E%3C%2FmxCell%3E%3C%2Froot%3E%3C%2FmxGraphModel%3E&lt;/span&gt;&lt;span style=&quot;color: rgba(0, 0, 0, 0); font-family: monospace; font-size: 0px; text-align: start;&quot;&gt;%3CmxGraphModel%3E%3Croot%3E%3CmxCell%20id%3D%220%22%2F%3E%3CmxCell%20id%3D%221%22%20parent%3D%220%22%2F%3E%3CmxCell%20id%3D%222%22%20value%3D%22Length%22%20style%3D%22ellipse%3BwhiteSpace%3Dwrap%3Bhtml%3D1%3BfillColor%3D%23f5f5f5%3BfontColor%3D%23333333%3BstrokeColor%3D%23666666%3Brounded%3D0%3B%22%20vertex%3D%221%22%20parent%3D%221%22%3E%3CmxGeometry%20x%3D%22355%22%20y%3D%22480%22%20width%3D%22110%22%20height%3D%2260%22%20as%3D%22geometry%22%2F%3E%3C%2FmxCell%3E%3C%2Froot%3E%3C%2FmxGraphModel%3E&lt;/span&gt;" style="ellipse;whiteSpace=wrap;html=1;fillColor=#f5f5f5;fontColor=#333333;strokeColor=#666666;rounded=0;" parent="1" vertex="1">
                    <mxGeometry x="720" y="640" width="110" height="60" as="geometry"/>
                </mxCell>
                <mxCell id="23" value="Password" style="ellipse;whiteSpace=wrap;html=1;fillColor=#f5f5f5;fontColor=#333333;strokeColor=#666666;rounded=0;" parent="1" vertex="1">
                    <mxGeometry x="720" y="460" width="110" height="60" as="geometry"/>
                </mxCell>
                <mxCell id="24" value="Bio" style="ellipse;whiteSpace=wrap;html=1;fillColor=#f5f5f5;fontColor=#333333;strokeColor=#666666;rounded=0;" parent="1" vertex="1">
                    <mxGeometry x="530" y="840" width="110" height="60" as="geometry"/>
                </mxCell>
                <mxCell id="25" value="Name" style="ellipse;whiteSpace=wrap;html=1;fillColor=#f5f5f5;fontColor=#333333;strokeColor=#666666;rounded=0;" parent="1" vertex="1">
                    <mxGeometry x="715" y="840" width="110" height="60" as="geometry"/>
                </mxCell>
                <mxCell id="26" value="Name" style="ellipse;whiteSpace=wrap;html=1;fillColor=#f5f5f5;fontColor=#333333;strokeColor=#666666;rounded=0;" parent="1" vertex="1">
                    <mxGeometry y="1000" width="110" height="60" as="geometry"/>
                </mxCell>
                <mxCell id="27" value="Release Date" style="ellipse;whiteSpace=wrap;html=1;fillColor=#f5f5f5;fontColor=#333333;strokeColor=#666666;rounded=0;" parent="1" vertex="1">
                    <mxGeometry x="230" y="1010" width="110" height="60" as="geometry"/>
                </mxCell>
                <mxCell id="28" value="Length" style="ellipse;whiteSpace=wrap;html=1;fillColor=#f5f5f5;fontColor=#333333;strokeColor=#666666;rounded=0;" parent="1" vertex="1">
                    <mxGeometry x="245" y="860" width="110" height="60" as="geometry"/>
                </mxCell>
                <mxCell id="29" value="Name" style="ellipse;whiteSpace=wrap;html=1;fillColor=#f5f5f5;fontColor=#333333;strokeColor=#666666;rounded=0;" parent="1" vertex="1">
                    <mxGeometry x="20" y="850" width="110" height="60" as="geometry"/>
                </mxCell>
                <mxCell id="30" value="Plays" style="ellipse;whiteSpace=wrap;html=1;fillColor=#f5f5f5;fontColor=#333333;strokeColor=#666666;rounded=0;" parent="1" vertex="1">
                    <mxGeometry x="210" y="10" width="90" height="60" as="geometry"/>
                </mxCell>
                <mxCell id="32" value="Likes" style="rounded=0;whiteSpace=wrap;html=1;fillColor=#f5f5f5;fontColor=#333333;strokeColor=#666666;" parent="1" vertex="1">
                    <mxGeometry x="410" y="290" width="120" height="60" as="geometry"/>
                </mxCell>
                <mxCell id="35" value="Song" style="rounded=0;whiteSpace=wrap;html=1;fillColor=#f5f5f5;fontColor=#333333;strokeColor=#666666;" parent="1" vertex="1">
                    <mxGeometry x="160" y="140" width="120" height="60" as="geometry"/>
                </mxCell>
                <mxCell id="36" value="Release Date" style="ellipse;whiteSpace=wrap;html=1;fillColor=#f5f5f5;fontColor=#333333;strokeColor=#666666;rounded=0;" vertex="1" parent="1">
                    <mxGeometry x="310" y="70" width="100" height="70" as="geometry"/>
                </mxCell>
            </root>
        </mxGraphModel>
    </diagram>
</mxfile>